# xmcd
#
# Track frame offsets:
# 182
# 17130
# 32055
# 47495
# 62857
# 76672
# 94847
# 114627
# 132347
# 146280
# 160447
# 179342
# 196312
# 215805
# 230110
# 256447
# 272655
#
# Disc length: 3886 seconds
#
# Revision: 2
# Processed by: cddbd v1.5.2PL0 Copyright (c) Steve Scherf et al.
# Submitted via: Axialis_AX_CDPlayer 2.6
#
DISCID=f60f2c11
DTITLE=Phil Kelsall - Some Enchanted Evening
DYEAR=1992
DGENRE=Organ
TTITLE0=The Phantom of the Opera
TTITLE1=Some Enchanted Evening
TTITLE2=a) Thoroghly Modern Millie b) The Boy Friend c) No No Nanette
TTITLE3=Hey There
TTITLE4=Can't Help Lovin' Dat Man
TTITLE5=And This Is My Beloved
TTITLE6=a) I've Got The Sun In The Morning b) I Whistle A Happy Tune c) The 
TTITLE6=Best \nOf Times
TTITLE7=I Don't Know How To Love Him
TTITLE8=The March Of The Siamese Children
TTITLE9=a) Out Of My Dreams b) The Girl That I Marry c) The Waltz At Maxims
TTITLE10=If I Loved You
TTITLE11=a) Wouldn't It Be Loverly b) Spring, Spring, Spring c) Mame
TTITLE12=Any Dream Will Do
TTITLE13=a) Leap Year Waltz b) Highwayman Love c) Fold Your Wings
TTITLE14=a) One Flower Grows Alone In Your Garden b) One Alone
TTITLE15=Indian Love Call
TTITLE16=a) A Wonderful Day Like Today b) There Is Nothing Liike A Dame c) D
TTITLE16=o-Re-Mi \nd) I Could Have Danced All Night e) Oklahoma!
EXTD=
EXTT0=
EXTT1=
EXTT2=
EXTT3=
EXTT4=
EXTT5=
EXTT6=
EXTT7=
EXTT8=
EXTT9=
EXTT10=
EXTT11=
EXTT12=
EXTT13=
EXTT14=
EXTT15=
EXTT16=
PLAYORDER=
